# xmcd
#
# Track frame offsets: 
#        150
#        15332
#        37827
#        53360
#        66747
#        87235
#        99050
#        110450
#        125495
#        144165
#        160460
#        176192
#        194552
#        208122
#        225657
#
# Disc length: 3282 seconds
#
# Revision: 0
# Processed by: cddbd v1.5.2PL0 Copyright (c) Steve Scherf et al.
# Submitted via: ExactAudioCopy v1.0b1
#
DISCID=c50cd00f
DTITLE=Eric Clapton - Me And Mr. Johnson
DYEAR=2004
DGENRE=Blues
TTITLE0=When You Got A Good Friend
TTITLE1=Little Queen Of Spades
TTITLE2=They're Red Hot
TTITLE3=Me And The Devil Blues
TTITLE4=Traveling Riverside Blues
TTITLE5=Last Fair Deal Gone Down
TTITLE6=Stop Breakin' Down Blues
TTITLE7=Milkcow's Calf Blues
TTITLE8=Kind Hearted Woman Blues
TTITLE9=Come On In My Kitchen
TTITLE10=If I had Possession Over Judgement Day
TTITLE11=Love In Vain
TTITLE12=30-20 Blues
TTITLE13=Hell Hound On My Trail
TTITLE14=Tears In Heaven (Extra Song)
EXTD=
EXTT0=
EXTT1=
EXTT2=
EXTT3=
EXTT4=
EXTT5=
EXTT6=
EXTT7=
EXTT8=
EXTT9=
EXTT10=
EXTT11=
EXTT12=
EXTT13=
EXTT14=
PLAYORDER=
